<svg width="34" height="31" viewBox="0 0 34 31" fill="none" xmlns="http://www.w3.org/2000/svg">
<path fill-rule="evenodd" clip-rule="evenodd" d="M33.8204 15.8524C33.8204 14.7533 33.7106 13.6964 33.5067 12.6819H17.2553V18.6776H26.5418C26.1418 20.6151 24.9261 22.2567 23.0986 23.3558V27.245H28.6752C31.938 24.5465 33.8204 20.5729 33.8204 15.8524Z" fill="#4285F4"/>
<path fill-rule="evenodd" clip-rule="evenodd" d="M17.2551 31C21.914 31 25.82 29.612 28.675 27.2447L23.0984 23.3556C21.5532 24.2856 19.5767 24.8352 17.2551 24.8352C12.7609 24.8352 8.95686 22.1086 7.59996 18.4449H1.83512V22.4608C4.67441 27.5266 10.5098 31 17.2551 31Z" fill="#34A853"/>
<path fill-rule="evenodd" clip-rule="evenodd" d="M7.60018 18.4453C7.25507 17.5153 7.05899 16.5219 7.05899 15.5003C7.05899 14.4787 7.25507 13.4853 7.60018 12.5553V8.53932H1.83534C0.666682 10.6318 0 12.9991 0 15.5003C0 18.0014 0.666682 20.3687 1.83534 22.4613L7.60018 18.4453Z" fill="#FBBC05"/>
<path fill-rule="evenodd" clip-rule="evenodd" d="M17.2551 6.16483C19.7885 6.16483 22.063 6.94688 23.8513 8.4828L28.8005 4.03708C25.8122 1.53592 21.9062 0 17.2551 0C10.5098 0 4.67441 3.47344 1.83512 8.53917L7.59996 12.5551C8.95686 8.89144 12.7609 6.16483 17.2551 6.16483Z" fill="#EA4335"/>
</svg>
