<svg width="21" height="24" viewBox="0 0 21 24" fill="none" xmlns="http://www.w3.org/2000/svg">
<path d="M20.5599 18.6817C20.1828 19.5192 19.7366 20.2901 19.2195 20.9989C18.5147 21.9652 17.9376 22.634 17.4928 23.0054C16.8034 23.6151 16.0647 23.9273 15.2737 23.945C14.7059 23.945 14.021 23.7897 13.2239 23.4745C12.4241 23.1608 11.6891 23.0054 11.0171 23.0054C10.3123 23.0054 9.55634 23.1608 8.7478 23.4745C7.93802 23.7897 7.28567 23.9539 6.78691 23.9702C6.02838 24.0013 5.27232 23.6802 4.51763 23.0054C4.03595 22.6014 3.43347 21.9089 2.71172 20.9279C1.93734 19.8802 1.30069 18.6654 0.801927 17.2804C0.267771 15.7844 0 14.3357 0 12.9332C0 11.3267 0.361029 9.94108 1.08416 8.77994C1.65248 7.84727 2.40855 7.11155 3.35483 6.57145C4.30111 6.03135 5.32356 5.75613 6.42465 5.73852C7.02714 5.73852 7.81722 5.91771 8.79904 6.26989C9.7781 6.62324 10.4067 6.80244 10.6824 6.80244C10.8884 6.80244 11.5868 6.59291 12.7707 6.17518C13.8902 5.78779 14.8351 5.62739 15.6092 5.69057C17.7067 5.85334 19.2826 6.6484 20.3306 8.08077C18.4546 9.17369 17.5267 10.7045 17.5451 12.6682C17.5621 14.1978 18.1392 15.4707 19.2733 16.4813C19.7873 16.9504 20.3614 17.3129 21 17.5704C20.8615 17.9566 20.7153 18.3265 20.5599 18.6817ZM15.7492 0.479581C15.7492 1.67847 15.2937 2.79786 14.3858 3.83396C13.2901 5.06569 11.9647 5.77743 10.5275 5.66512C10.5092 5.52129 10.4986 5.36992 10.4986 5.21085C10.4986 4.05992 11.0197 2.8282 11.945 1.8211C12.407 1.31119 12.9946 0.8872 13.7071 0.54898C14.4181 0.215805 15.0906 0.0315525 15.7231 0C15.7415 0.160272 15.7492 0.320555 15.7492 0.479566V0.479581Z" fill="white"/>
</svg>
